# xmcd CD database file
#
# Track frame offsets:
#	150
#	28937
#	47866
#	76344
#	91784
#	109919
#	135300
#	165954
#	183305
#	197460
#	213230
#	222688
#	236154
#	250716
#	265792
#	278785
#	294155
#	307083
#	320858
#	331300
#	339968
#
# Disc length: 4750 seconds
#
# Revision: 0
# Processed by: cddbd v1.5.2PL0 Copyright (c) Steve Scherf et al.
# Submitted via: CDex 1.51
#
DISCID=30128c15
DTITLE=Billie Holiday - Four Classic Albums Plus - CD1
DYEAR=1900
DGENRE=Jazz
TTITLE0=Body And Soul a
TTITLE1=They Can't Take That Away From Me
TTITLE2=Darn That Dream
TTITLE3=Let's Call The Whole Thing Off
TTITLE4=Comes Love
TTITLE5=Gee, Baby, Ain't I Good To You a
TTITLE6=Embraceable You
TTITLE7=Moonlight In Vermont
TTITLE8=Willow Weep For Me
TTITLE9=My Man
TTITLE10=Lover, Come Back To Me
TTITLE11=Lady Sings The Blues
TTITLE12=What A Little Moonlight Can Do
TTITLE13=Body And Soul b
TTITLE14=Strange Fruit
TTITLE15=Travelin' Light
TTITLE16=He's Funny That Way
TTITLE17=The Man I Love
TTITLE18=Gee, Baby, Ain't I Good To You b
TTITLE19=All Of Me
TTITLE20=Billie's Blues
EXTD=
EXTT0=
EXTT1=
EXTT2=
EXTT3=
EXTT4=
EXTT5=
EXTT6=
EXTT7=
EXTT8=
EXTT9=
EXTT10=
EXTT11=
EXTT12=
EXTT13=
EXTT14=
EXTT15=
EXTT16=
EXTT17=
EXTT18=
EXTT19=
EXTT20=
PLAYORDER=
